<svg version="1.1" xmlns="http://www.w3.org/2000/svg" viewBox="0 0 1769.4285714285716 1050.1222098214287" width="1769.4285714285716" height="1050.1222098214287">
  <!-- svg-source:excalidraw -->
  
  <defs>
    <style>
      @font-face {
        font-family: "Virgil";
        src: url("https://excalidraw.com/Virgil.woff2");
      }
      @font-face {
        font-family: "Cascadia";
        src: url("https://excalidraw.com/Cascadia.woff2");
      }
    </style>
  </defs>
  <rect x="0" y="0" width="1769.4285714285716" height="1050.1222098214287" fill="#ffffff"></rect><g stroke-linecap="round"><g transform="translate(548.8420198332935 204.16488124221632) rotate(0 16.67957764275741 30.46174054838025)" fill-rule="evenodd"><path d="M-38.38 -0.55 L161.39 -0.56 L75.95 60.35 L-128.06 60.1 L-36.56 1.04" stroke="none" stroke-width="0" fill="#ced4da" fill-rule="evenodd"></path><path d="M-35.93 0.92 C40.47 0.76, 119.25 1.65, 159.98 0.32 M-36.99 0.92 C30.15 1.16, 99.51 1.56, 161.25 -0.11 M162.04 -0.66 C135.34 20.44, 107.72 38.24, 75.27 58.86 M159.98 0.04 C141.49 12.46, 124.32 23.87, 73.67 60.88 M72.7 60.43 C31.5 61.36, -8.95 59.59, -127.48 59.89 M74.45 59.31 C20.09 61.43, -32.75 62.54, -127.32 60.56 M-126.87 59.05 C-104.37 42.98, -76.97 28.57, -37.9 -0.36 M-128.68 60.19 C-94.55 37.76, -63.7 15.85, -36.83 -0.3 M-37.54 0 C-37.54 0, -37.54 0, -37.54 0 M-37.54 0 C-37.54 0, -37.54 0, -37.54 0" stroke="#000000" stroke-width="1" fill="none"></path></g></g><g stroke-linecap="round" transform="translate(416.73493303571456 65.02064732142868) rotate(0 159.05078125 35.05078125)"><path d="M17.78 -1.25 L305.94 1.74 L312.89 1.76 L315.48 11.06 L316.77 57.36 L316.7 62.24 L309.74 68.06 L301.75 69.64 L13.63 70.26 L7.38 67.59 L2.78 59.22 L-1.45 19.2 L-0.79 8.58 L4.6 2.94 L8.16 -0.23 L17.68 0.82" stroke="none" stroke-width="0" fill="#ced4da"></path><path d="M17.53 0 M17.53 0 C111.48 2.5, 207.84 2.64, 300.58 0 M17.53 0 C104.85 0.13, 192.62 -0.35, 300.58 0 M300.58 0 C312.51 0.91, 316.17 7.68, 318.1 17.53 M300.58 0 C312.19 0.38, 319.27 5.41, 318.1 17.53 M318.1 17.53 C319.1 29.63, 317.37 39.64, 318.1 52.58 M318.1 17.53 C318.78 30.04, 318.82 42.46, 318.1 52.58 M318.1 52.58 C319.15 64.09, 314.02 71.73, 300.58 70.1 M318.1 52.58 C319.7 65.52, 313.63 70.38, 300.58 70.1 M300.58 70.1 C243.11 72.2, 186.21 72.65, 17.53 70.1 M300.58 70.1 C214.33 69.47, 128.91 69.8, 17.53 70.1 M17.53 70.1 C4.46 69.3, -0.66 65.83, 0 52.58 M17.53 70.1 C4.54 68.17, -0.77 63.64, 0 52.58 M0 52.58 C-0.17 42.4, -1.71 36.07, 0 17.53 M0 52.58 C1.22 38.39, -0.19 26.27, 0 17.53 M0 17.53 C0.05 4.21, 6.41 0.23, 17.53 0 M0 17.53 C-1.07 5.27, 7.35 -0.61, 17.53 0" stroke="#000000" stroke-width="1" fill="none"></path></g><g transform="translate(421.73493303571456 87.07142857142868) rotate(0 154.05078125 13)"><text x="154.05078125" y="18" font-family="Virgil, Segoe UI Emoji" font-size="20px" fill="#000000" text-anchor="middle" style="white-space: pre;" direction="ltr">Start</text></g><g stroke-linecap="round"><g transform="translate(582.8556303603397 139.1495773561083) rotate(0 0.445914453689511 26.853665555410444)"><path d="M-1.06 -0.5 C-0.57 8.63, 1.44 46.01, 1.95 55.51 M0.59 -1.8 C1.05 6.87, 1.11 44.07, 1.26 53.49" stroke="#000000" stroke-width="1" fill="none"></path></g><g transform="translate(582.8556303603397 139.1495773561083) rotate(0 0.445914453689511 26.853665555410444)"><path d="M-9.26 28.42 C-5.82 34.26, -2.09 39.07, 3.15 55.34 M-7.87 26.99 C-5.41 34.89, -3.76 42.19, 2.24 52.68" stroke="#000000" stroke-width="1" fill="none"></path></g><g transform="translate(582.8556303603397 139.1495773561083) rotate(0 0.445914453689511 26.853665555410444)"><path d="M9.67 28.25 C8.97 33.97, 8.57 38.81, 3.15 55.34 M11.05 26.82 C8.47 34.73, 5.08 42.07, 2.24 52.68" stroke="#000000" stroke-width="1" fill="none"></path></g></g><g transform="translate(524.2857142857146 233.07142857142867) rotate(0 48.5 13)"><text x="0" y="18" font-family="Virgil, Segoe UI Emoji" font-size="20px" fill="#000000" text-anchor="start" style="white-space: pre;" direction="ltr">Input num</text></g><g stroke-linecap="round" transform="translate(396.28571428571456 330.07142857142867) rotate(0 173 55)"><path d="M-1.4 0.53 L345.56 1.94 L346.02 111.64 L-1.75 108.03" stroke="none" stroke-width="0" fill="#ced4da"></path><path d="M-1.26 0.72 C99.57 -2.29, 195.39 -1.14, 346.7 -0.43 M0.28 -0.35 C111.43 1.03, 223.73 1.89, 345.87 0.63 M345.99 1.93 C345.12 35.6, 347.41 70.69, 344.01 111.05 M346.57 0.16 C346.77 32.89, 345.75 67.07, 345.2 110.43 M346.97 108.9 C258.61 109.87, 171.21 110.69, 1 110.22 M345.48 109.46 C221.41 109.97, 95.56 110.28, -0.17 109.95 M1.87 108.06 C1.9 79.7, 2.21 48.92, -0.06 1.51 M-0.91 109.35 C-1.02 86.16, -0.3 63.08, -0.41 -0.94" stroke="#000000" stroke-width="1" fill="none"></path></g><g stroke-linecap="round"><g transform="translate(570.2857142857146 280.0714285714287) rotate(0 0.3779132802494587 19.799897886528612)"><path d="M-0.84 0.32 C-0.49 7.2, 1.14 33.55, 1.6 40.16 M0.92 -0.56 C1.13 6.11, 0.48 32.2, 0.51 38.65" stroke="#000000" stroke-width="1" fill="none"></path></g><g transform="translate(570.2857142857146 280.0714285714287) rotate(0 0.3779132802494587 19.799897886528612)"><path d="M-5.45 19.8 C-2.57 25.06, -1.18 28.09, -1.41 38.66 M-6.78 20.99 C-2.78 27.51, -1.47 34.68, 0.47 39.01" stroke="#000000" stroke-width="1" fill="none"></path></g><g transform="translate(570.2857142857146 280.0714285714287) rotate(0 0.3779132802494587 19.799897886528612)"><path d="M7.91 19.95 C7.33 25.08, 5.26 28.07, -1.41 38.66 M6.57 21.14 C5.65 27.51, 2.06 34.62, 0.47 39.01" stroke="#000000" stroke-width="1" fill="none"></path></g></g><g transform="translate(401.28571428571456 372.07142857142867) rotate(0 168 13)"><text x="168" y="18" font-family="Virgil, Segoe UI Emoji" font-size="20px" fill="#000000" text-anchor="middle" style="white-space: pre;" direction="ltr">Num = num + 1</text></g><g stroke-linecap="round" transform="translate(498.28571428571456 517.0714285714287) rotate(0 79.5 83.5)"><path d="M80.44 -0.84 L157.03 83.81 L81.55 165.78 L1.67 83.19" stroke="none" stroke-width="0" fill="#ced4da" fill-rule="evenodd"></path><path d="M78.15 1.57 C95.01 19.89, 113.3 35.1, 158.06 84.15 M81 -0.84 C107.44 31.73, 136.78 60.76, 159.2 84.65 M158.16 83.52 C134.16 111.15, 109.62 135.89, 79.26 167.61 M158.28 83.34 C128.68 115.08, 99.81 145.74, 79.31 168 M81.79 168.52 C49.36 133.24, 15.94 102.28, 0 85.39 M80.91 166.64 C58.93 145.89, 39.62 125.72, 0.71 84.59 M-1.09 84.29 C18.16 66.85, 30.98 51.85, 78.02 -0.24 M0.34 84.23 C32.09 51.4, 64.51 18.38, 79.97 -0.75" stroke="#000000" stroke-width="1" fill="none"></path></g><g stroke-linecap="round"><g transform="translate(567.9825736939239 458.07142857142867) rotate(0 0.3890919752196851 28.001491260122776)"><path d="M0.59 0.81 C0.9 9.88, 1.2 45.62, 1.34 54.78 M-0.56 0.19 C-0.4 9.35, -0.02 46.34, 0.15 55.82" stroke="#000000" stroke-width="1" fill="none"></path></g><g transform="translate(567.9825736939239 458.07142857142867) rotate(0 0.3890919752196851 28.001491260122776)"><path d="M-8.39 28.98 C-8.73 35.68, -4.6 41.08, -1.3 54.64 M-10.02 29.98 C-7.45 35.75, -3.99 42.8, 0.88 55.26" stroke="#000000" stroke-width="1" fill="none"></path></g><g transform="translate(567.9825736939239 458.07142857142867) rotate(0 0.3890919752196851 28.001491260122776)"><path d="M10.67 28.72 C5.48 35.58, 4.76 41.05, -1.3 54.64 M9.05 29.72 C6.67 35.63, 5.18 42.75, 0.88 55.26" stroke="#000000" stroke-width="1" fill="none"></path></g></g><g transform="translate(503.28571428571456 587.5714285714287) rotate(0 74.5 13)"><text x="74.5" y="18" font-family="Virgil, Segoe UI Emoji" font-size="20px" fill="#000000" text-anchor="middle" style="white-space: pre;" direction="ltr">num is even?</text></g><g stroke-linecap="round"><g transform="translate(578.2857142857144 692.0714285714287) rotate(0 0.900096148318994 42.1165964038949)"><path d="M1.1 0.88 C1.43 14.88, 1.27 70.38, 1.6 83.93 M0.22 0.3 C0.39 13.98, -0.03 68.47, 0.41 82.26" stroke="#000000" stroke-width="1" fill="none"></path></g><g transform="translate(578.2857142857144 692.0714285714287) rotate(0 0.900096148318994 42.1165964038949)"><path d="M-8.65 53.39 C-5.87 63.28, -5.94 67.49, 0.28 82.91 M-10.68 54.85 C-6.74 64.8, -1.44 76.5, -0.57 82.29" stroke="#000000" stroke-width="1" fill="none"></path></g><g transform="translate(578.2857142857144 692.0714285714287) rotate(0 0.900096148318994 42.1165964038949)"><path d="M11.88 53.2 C9.14 63.33, 3.55 67.59, 0.28 82.91 M9.84 54.66 C5.94 64.88, 3.38 76.65, -0.57 82.29" stroke="#000000" stroke-width="1" fill="none"></path></g></g><g transform="translate(529.2857142857146 688.0714285714287) rotate(0 16 13)"><text x="0" y="18" font-family="Virgil, Segoe UI Emoji" font-size="20px" fill="#000000" text-anchor="start" style="white-space: pre;" direction="ltr">yes</text></g><g stroke-linecap="round"><g transform="translate(483.5669346903278 788.5963868836166) rotate(0 97.25286089836106 39.225781976718395)" fill-rule="evenodd"><path d="M42.94 0.56 L247.92 -0.15 L156.1 79.41 L-52.92 79.17 L41.57 0.6" stroke="none" stroke-width="0" fill="#ced4da" fill-rule="evenodd"></path><path d="M41.08 1 C111.17 -2.43, 181.6 -1.66, 248.51 -0.78 M41.1 0.51 C98.02 -0.75, 154.35 -0.69, 247.26 -0.02 M248.68 -1.05 C217.2 28.05, 182.73 59.36, 157.68 77.66 M247.59 0.79 C227.27 20.05, 205.78 39.3, 157.41 78.97 M157.63 79.97 C110.54 78.62, 60.91 78.37, -54.17 79.39 M157.82 77.85 C88.11 78.8, 18.02 78.83, -52.61 78.23 M-52.87 78.37 C-28.48 57.73, -0.11 37.31, 41.35 1.28 M-53.1 77.94 C-21.64 52.45, 8.38 25.61, 42.06 -0.64 M41.36 0 C41.36 0, 41.36 0, 41.36 0 M41.36 0 C41.36 0, 41.36 0, 41.36 0" stroke="#000000" stroke-width="1" fill="none"></path></g></g><g transform="translate(509.28571428571456 817.0714285714287) rotate(0 82.5 13)"><text x="0" y="18" font-family="Virgil, Segoe UI Emoji" font-size="20px" fill="#000000" text-anchor="start" style="white-space: pre;" direction="ltr">print num is even</text></g><g stroke-linecap="round" transform="translate(378.73493303571456 949.0206473214287) rotate(0 190.55078125 45.55078125)"><path d="M21.14 1.15 L362.21 2.09 L374.82 3.83 L381.05 12.08 L381.52 23.81 L381.65 75.29 L375.71 86.15 L370.2 88.56 L357.96 91.64 L16.19 92.25 L9.52 87.98 L0.88 78.62 L-0.92 67.7 L1.65 21.35 L1.86 11.64 L6.27 5.51 L12.59 0.65 L23.9 0.03" stroke="none" stroke-width="0" fill="#ced4da"></path><path d="M22.78 0 M22.78 0 C153.18 -1.51, 284.06 -2.89, 358.33 0 M22.78 0 C108.64 0.55, 193.09 0.25, 358.33 0 M358.33 0 C371.54 -1.07, 380.39 8.28, 381.1 22.78 M358.33 0 C374.4 -1.67, 383.33 7.59, 381.1 22.78 M381.1 22.78 C381.46 39.32, 381.51 50.79, 381.1 68.33 M381.1 22.78 C382.27 38.02, 381.9 54.13, 381.1 68.33 M381.1 68.33 C379.98 85.05, 372.98 92.4, 358.33 91.1 M381.1 68.33 C380.23 82, 374.37 89.89, 358.33 91.1 M358.33 91.1 C238.65 92.72, 119.24 90.92, 22.78 91.1 M358.33 91.1 C284.5 88.33, 210.17 89.12, 22.78 91.1 M22.78 91.1 C7.03 92.61, 0.5 82.97, 0 68.33 M22.78 91.1 C7.28 88.97, 1.78 85.61, 0 68.33 M0 68.33 C-0.45 49.94, 1.61 34.18, 0 22.78 M0 68.33 C0.74 55.28, -0.29 42.63, 0 22.78 M0 22.78 C0.14 5.95, 6.08 0.88, 22.78 0 M0 22.78 C0.33 5.96, 5.95 -0.03, 22.78 0" stroke="#000000" stroke-width="1" fill="none"></path></g><g transform="translate(383.73493303571456 981.5714285714287) rotate(0 185.5 13)"><text x="185.5" y="18" font-family="Virgil, Segoe UI Emoji" font-size="20px" fill="#000000" text-anchor="middle" style="white-space: pre;" direction="ltr">stop</text></g><g stroke-linecap="round"><g transform="translate(564.2857142857146 869.0714285714287) rotate(0 1.3965471610426903 34.0261269577872)"><path d="M-1.08 0.11 C-0.39 11.54, 3.07 56.4, 3.88 67.95 M0.55 -0.88 C1.1 10.72, 2.49 57.57, 2.87 68.93" stroke="#000000" stroke-width="1" fill="none"></path></g><g transform="translate(564.2857142857146 869.0714285714287) rotate(0 1.3965471610426903 34.0261269577872)"><path d="M-8.09 40.87 C-7.12 48.38, -1.64 57.79, 3.87 67.2 M-7.36 41.02 C-5.56 47.78, -3.74 53.44, 1.95 69.62" stroke="#000000" stroke-width="1" fill="none"></path></g><g transform="translate(564.2857142857146 869.0714285714287) rotate(0 1.3965471610426903 34.0261269577872)"><path d="M12.42 40.23 C7.75 47.73, 7.59 57.32, 3.87 67.2 M13.15 40.38 C10.73 47.2, 8.33 52.99, 1.95 69.62" stroke="#000000" stroke-width="1" fill="none"></path></g></g><g stroke-linecap="round"><g transform="translate(859.6650324474507 44.02730842635792) rotate(0 -58.6077166087116 28.62686788457534)"><path d="M0.27 0.68 C-19.27 10.17, -97.57 46.81, -117.12 56.23 M-1.04 -0.01 C-20.66 9.67, -98.13 47.51, -117.49 57.27" stroke="#a61e4d" stroke-width="1" fill="none"></path></g><g transform="translate(859.6650324474507 44.02730842635792) rotate(0 -58.6077166087116 28.62686788457534)"><path d="M-95.65 37.42 C-104.95 44.34, -109.81 50.46, -117.84 55.97 M-95.89 36.08 C-102.45 41.7, -110.33 48.63, -117.72 56.38" stroke="#a61e4d" stroke-width="1" fill="none"></path></g><g transform="translate(859.6650324474507 44.02730842635792) rotate(0 -58.6077166087116 28.62686788457534)"><path d="M-86.54 55.81 C-98.57 57.02, -106.27 57.39, -117.84 55.97 M-86.79 54.47 C-96 54.37, -106.67 55.66, -117.72 56.38" stroke="#a61e4d" stroke-width="1" fill="none"></path></g></g><g transform="translate(872.857142857143 10) rotate(0 284 13)"><text x="0" y="18" font-family="Virgil, Segoe UI Emoji" font-size="20px" fill="#a61e4d" text-anchor="start" style="white-space: pre;" direction="ltr">terminals: they show the start and end of your programs</text></g><g stroke-linecap="round"><g transform="translate(262.7142857142859 227.0939633894833) rotate(0 84.02544557471032 -2.0926828644965383)"><path d="M0.84 1.13 C28.91 0.3, 140.24 -4.37, 168.23 -5.32 M-0.18 0.68 C27.71 0.08, 138.99 -2.61, 167.02 -3.82" stroke="#a61e4d" stroke-width="1" fill="none"></path></g><g transform="translate(262.7142857142859 227.0939633894833) rotate(0 84.02544557471032 -2.0926828644965383)"><path d="M141.07 6.53 C146.98 4.08, 156.1 1.3, 166.38 -2.6 M139.82 8.22 C145.77 3.45, 154.67 0.77, 166.24 -2.97" stroke="#a61e4d" stroke-width="1" fill="none"></path></g><g transform="translate(262.7142857142859 227.0939633894833) rotate(0 84.02544557471032 -2.0926828644965383)"><path d="M140.41 -13.98 C146.45 -10.61, 155.76 -7.57, 166.38 -2.6 M139.16 -12.29 C145.17 -11.6, 154.25 -8.81, 166.24 -2.97" stroke="#a61e4d" stroke-width="1" fill="none"></path></g></g><g transform="translate(10 188.5714285714286) rotate(0 123 52)"><text x="0" y="18" font-family="Virgil, Segoe UI Emoji" font-size="20px" fill="#a61e4d" text-anchor="start" style="white-space: pre;" direction="ltr">inputs and outputs:</text><text x="0" y="44" font-family="Virgil, Segoe UI Emoji" font-size="20px" fill="#a61e4d" text-anchor="start" style="white-space: pre;" direction="ltr">use these to get input </text><text x="0" y="70" font-family="Virgil, Segoe UI Emoji" font-size="20px" fill="#a61e4d" text-anchor="start" style="white-space: pre;" direction="ltr">from the user or return </text><text x="0" y="96" font-family="Virgil, Segoe UI Emoji" font-size="20px" fill="#a61e4d" text-anchor="start" style="white-space: pre;" direction="ltr">output</text></g><g stroke-linecap="round"><g transform="translate(861.4285714285714 387.57142857142856) rotate(0 -52.16564379123304 -0.1043037537205862)"><path d="M-0.99 -0.84 C-18.31 -0.73, -86.98 0.19, -104.15 0.39 M0.69 1.33 C-16.75 1.09, -87.48 -1.01, -105.02 -1.53" stroke="#a61e4d" stroke-width="1" fill="none"></path></g><g transform="translate(861.4285714285714 387.57142857142856) rotate(0 -52.16564379123304 -0.1043037537205862)"><path d="M-77.95 -10.73 C-83.92 -8.03, -92 -7.57, -105 -0.13 M-75.68 -11.85 C-83.24 -7.61, -90.16 -5.98, -105.76 -0.93" stroke="#a61e4d" stroke-width="1" fill="none"></path></g><g transform="translate(861.4285714285714 387.57142857142856) rotate(0 -52.16564379123304 -0.1043037537205862)"><path d="M-78.56 9.78 C-84.31 6.73, -92.21 1.43, -105 -0.13 M-76.29 8.66 C-83.58 8.05, -90.36 4.84, -105.76 -0.93" stroke="#a61e4d" stroke-width="1" fill="none"></path></g></g><g transform="translate(891.4285714285717 371.4285714285714) rotate(0 433.9999999999999 13)"><text x="0" y="18" font-family="Virgil, Segoe UI Emoji" font-size="20px" fill="#a61e4d" text-anchor="start" style="white-space: pre;" direction="ltr">processing (if there are two lines inside that means its some kind of language feature)</text></g><g stroke-linecap="round" transform="translate(947.1428571428572 443.2857142857143) rotate(0 188.57142857142867 57.142857142857196)"><path d="M-1.1 1.89 L376.34 1.17 L379.1 113.59 L0.73 112.81" stroke="none" stroke-width="0" fill="#ced4da"></path><path d="M-0.71 0.58 C127.54 2.25, 255.48 0.71, 378.32 -0.7 M0.54 -0.3 C115.3 -1.73, 232.31 -1.06, 377.64 -0.05 M377.25 1.41 C377.24 37.3, 374.11 77.69, 377.33 114.25 M377.09 0.29 C376.73 39.98, 376.88 80.66, 378.12 113.41 M377.56 113.47 C245.94 113.94, 112.87 113.96, -0.58 115.36 M377.4 114.53 C236.96 115.55, 95.68 115.48, -0.43 114.27 M0.83 114.35 C1.62 79.54, 0.63 46.47, -1.41 0.2 M0.07 114.01 C0.61 73.88, 0.37 34.33, 0.67 0" stroke="#000000" stroke-width="1" fill="none"></path></g><g stroke-linecap="round"><g transform="translate(992.857142857143 444.7142857142857) rotate(0 0.04763881196265629 60.16280958910943)"><path d="M-0.79 0.5 C-0.77 20.7, 0.06 100.7, 0.04 120.62 M0.99 -0.29 C0.87 19.62, -0.97 98.54, -0.89 118.82" stroke="#000000" stroke-width="1" fill="none"></path></g></g><g stroke-linecap="round"><g transform="translate(1248.571428571429 444.7142857142857) rotate(0 -0.12415844075110272 60.77207922702732)"><path d="M-0.72 1.14 C-0.95 21.13, -1.58 101.19, -1.33 120.86 M1.11 0.69 C1.23 20.27, 0.96 99.26, 0.88 119.14" stroke="#000000" stroke-width="1" fill="none"></path></g></g><g transform="translate(1050 464.28571428571433) rotate(0 79.5 39)"><text x="0" y="18" font-family="Virgil, Segoe UI Emoji" font-size="20px" fill="#000000" text-anchor="start" style="white-space: pre;" direction="ltr">some kind of </text><text x="0" y="44" font-family="Virgil, Segoe UI Emoji" font-size="20px" fill="#000000" text-anchor="start" style="white-space: pre;" direction="ltr">abstractiom not</text><text x="0" y="70" font-family="Virgil, Segoe UI Emoji" font-size="20px" fill="#000000" text-anchor="start" style="white-space: pre;" direction="ltr">wirtten by you</text></g><g stroke-linecap="round"><g transform="translate(487.1428571428572 597.5714285714287) rotate(0 -75.1454787311556 1.0952564489536485)"><path d="M-0.89 0.63 C-26.03 0.86, -125.39 2.02, -150.62 2.31 M0.85 -0.09 C-24.4 -0.26, -126.03 0.54, -151.14 0.64" stroke="#000000" stroke-width="1" fill="none"></path></g></g><g stroke-linecap="round"><g transform="translate(335.7142857142859 593.2857142857143) rotate(0 -0.3000874711107713 -94.66441222280264)"><path d="M-0.71 1.18 C-0.62 -30.42, -0.43 -158.53, -0.51 -190.51 M1.12 0.76 C1.09 -30.61, -1.71 -157.48, -1.72 -189.24" stroke="#000000" stroke-width="1" fill="none"></path></g></g><g stroke-linecap="round"><g transform="translate(332.857142857143 399) rotate(0 27.471835816100054 1.6704240400749768)"><path d="M-1.12 0.54 C7.71 0.93, 44.34 3.26, 53.67 3.57 M0.5 -0.23 C9.66 0.33, 47.08 1.2, 56.06 1.82" stroke="#000000" stroke-width="1" fill="none"></path></g><g transform="translate(332.857142857143 399) rotate(0 27.471835816100054 1.6704240400749768)"><path d="M31.04 8.99 C40.58 8.24, 47.99 2.47, 57.41 0.03 M29.35 10.22 C36.52 9.14, 42.02 5.56, 55.16 1.55" stroke="#000000" stroke-width="1" fill="none"></path></g><g transform="translate(332.857142857143 399) rotate(0 27.471835816100054 1.6704240400749768)"><path d="M31.83 -9.59 C41.27 -3.66, 48.4 -2.74, 57.41 0.03 M30.15 -8.35 C37.07 -5.13, 42.37 -4.39, 55.16 1.55" stroke="#000000" stroke-width="1" fill="none"></path></g></g><g transform="translate(448.57142857142867 562.8571428571429) rotate(0 10.5 13)"><text x="0" y="18" font-family="Virgil, Segoe UI Emoji" font-size="20px" fill="#000000" text-anchor="start" style="white-space: pre;" direction="ltr">no</text></g><g stroke-linecap="round"><g transform="translate(817.1428571428572 697.5714285714287) rotate(0 -74.58198068858201 -46.13406020711568)"><path d="M-1.16 0.18 C-25.77 -15.41, -123.96 -76.98, -148.8 -92.45 M0.43 -0.77 C-24.2 -15.69, -124.88 -76.03, -149.59 -91.18" stroke="#a61e4d" stroke-width="1" fill="none"></path></g><g transform="translate(817.1428571428572 697.5714285714287) rotate(0 -74.58198068858201 -46.13406020711568)"><path d="M-119.86 -84.88 C-127.02 -88.62, -133.28 -89.81, -148.36 -90.53 M-120.29 -85.99 C-126.12 -86.81, -133.45 -88.55, -149.39 -90.51" stroke="#a61e4d" stroke-width="1" fill="none"></path></g><g transform="translate(817.1428571428572 697.5714285714287) rotate(0 -74.58198068858201 -46.13406020711568)"><path d="M-130.49 -67.33 C-135.66 -74.51, -139.76 -79.26, -148.36 -90.53 M-130.91 -68.43 C-134.35 -72.99, -139.44 -78.45, -149.39 -90.51" stroke="#a61e4d" stroke-width="1" fill="none"></path></g></g><g transform="translate(837.1428571428572 688.5714285714287) rotate(0 294 13)"><text x="0" y="18" font-family="Virgil, Segoe UI Emoji" font-size="20px" fill="#a61e4d" text-anchor="start" style="white-space: pre;" direction="ltr">desisions (you would follow the path acording to the check)</text></g><g transform="translate(922.857142857143 23.285714285714292) rotate(0 0 0)" stroke="none" fill="#a61e4d"><path d="M 2.04,-0.63 Q 2.04,-0.63 2.07,-0.12 2.10,0.38 1.89,0.85 1.68,1.31 1.28,1.63 0.87,1.94 0.37,2.04 -0.12,2.13 -0.61,1.98 -1.10,1.82 -1.46,1.46 -1.83,1.10 -1.98,0.61 -2.13,0.12 -2.04,-0.37 -1.94,-0.87 -1.63,-1.28 -1.31,-1.68 -0.85,-1.89 -0.38,-2.10 0.12,-2.07 0.63,-2.04 1.07,-1.77 1.51,-1.51 1.77,-1.07 L 2.04,-0.63 Z"></path></g></svg>